<svg xmlns="http://www.w3.org/2000/svg" viewBox="0 0 64 64" width="64" height="64">
  <rect width="64" height="64" rx="14" fill="#0a152d"/>
  <path fill="#00aeef" d="M32 9c3.2-1.3 6.1 1.6 9.2 1.2 3-.3 6.3-2.3 8.7-.3 2.5 2 1 5.8 2 8.7 1 2.9 4.2 5.2 4 8.3-.1 3.1-3.6 5-4.9 7.9-1.2 2.9-.4 6.7-2.7 8.8-2.3 2.1-5.9.8-8.7 1.9-2.9 1.1-5.3 4.5-8.4 4.3-3.2-.2-4.8-3.9-7.7-5.3-2.8-1.3-6.7-1-8.7-3.5-1.9-2.5-.4-6.1-1.3-9.1C13.2 38 10.1 35.6 10.4 32.4c.3-3.1 3.9-4.6 5.4-7.4 1.4-2.7.9-6.5 3.3-8.4 2.4-1.9 5.9-.2 8.8-.8 1.4-.3 2.7-1.2 4.1-1.8z"/>
  <circle cx="20" cy="18" r="2.6" fill="#f7c600"/>
  <circle cx="46" cy="44" r="2.3" fill="#f7c600"/>
  <text x="32" y="40" text-anchor="middle" font-family="Outfit, Arial, sans-serif" font-weight="700" font-size="22" fill="#ffffff">G</text>
</svg>
