<svg xmlns="http://www.w3.org/2000/svg" viewBox="0 0 100 100" width="100" height="100">
  <rect width="100" height="100" rx="22" fill="#ffffff"/>
  <circle cx="14" cy="26" r="5" fill="#f7c600"/>
  <circle cx="87" cy="70" r="4.2" fill="#f7c600"/>
  <path fill="#00aeef" d="M50 8c10.5 0 14.8 9.3 25.1 10.3 10.3 1 17.5 9.2 15.4 19.4-2 10.2 5.9 16.4 3 26.6-2.9 10.2-13.2 11.8-18.8 20.3-5.6 8.6-16.7 5.2-25.3 6-8.6.9-16.8 4-23.6-3.4-6.7-7.4-17.6-6.6-18.4-16.9-.9-10.4-7.5-17.4-2.7-27C9.6 33.4 6.8 23 16.1 17.2 25.4 11.5 34.8 8 50 8Z"/>
  <g fill="#ffffff" font-family="Outfit, Arial, sans-serif" font-weight="800" text-anchor="middle">
    <text x="50" y="41" font-size="22">GE</text>
    <text x="50" y="61" font-size="19">KRA</text>
    <text x="50" y="82" font-size="22">FS</text>
  </g>
</svg>
